<mxfile host="Electron" modified="2023-05-08T02:36:46.824Z" agent="Mozilla/5.0 (X11; Linux x86_64) AppleWebKit/537.36 (KHTML, like Gecko) draw.io/21.1.2 Chrome/106.0.5249.199 Electron/21.4.3 Safari/537.36" etag="Vq5tNfoDi98f5M_V-7yy" version="21.1.2" type="device">
  <diagram name="Page-1" id="Om-3peGlLS8MlE4AToRU">
    <mxGraphModel dx="985" dy="491" grid="1" gridSize="10" guides="1" tooltips="1" connect="1" arrows="1" fold="1" page="1" pageScale="1" pageWidth="850" pageHeight="1100" background="none" math="0" shadow="0">
      <root>
        <mxCell id="0" />
        <mxCell id="1" parent="0" />
        <mxCell id="RE2z4oIGo5BumyQNLzhf-1" value="" style="swimlane;startSize=0;rotation=90;rounded=1;glass=0;shadow=0;noLabel=0;resizeWidth=0;enumerate=0;moveCells=0;comic=0;labelBackgroundColor=none;" vertex="1" parent="1">
          <mxGeometry x="220" y="380" width="201" height="200" as="geometry">
            <mxRectangle x="375.5" y="384.5" width="50" height="40" as="alternateBounds" />
          </mxGeometry>
        </mxCell>
        <mxCell id="RE2z4oIGo5BumyQNLzhf-6" value="" style="rounded=1;whiteSpace=wrap;html=1;rotation=45;labelBackgroundColor=none;" vertex="1" parent="RE2z4oIGo5BumyQNLzhf-1">
          <mxGeometry x="151" y="20" width="50" height="10" as="geometry" />
        </mxCell>
        <mxCell id="RE2z4oIGo5BumyQNLzhf-7" value="" style="rounded=1;whiteSpace=wrap;html=1;rotation=45;labelBackgroundColor=none;" vertex="1" parent="RE2z4oIGo5BumyQNLzhf-1">
          <mxGeometry x="1" y="170" width="50" height="10" as="geometry" />
        </mxCell>
        <mxCell id="RE2z4oIGo5BumyQNLzhf-8" value="" style="rounded=1;whiteSpace=wrap;html=1;rotation=45;direction=south;labelBackgroundColor=none;" vertex="1" parent="RE2z4oIGo5BumyQNLzhf-1">
          <mxGeometry x="171" y="150" width="10" height="50" as="geometry" />
        </mxCell>
        <mxCell id="RE2z4oIGo5BumyQNLzhf-10" value="" style="rounded=1;whiteSpace=wrap;html=1;rotation=45;direction=south;labelBackgroundColor=none;" vertex="1" parent="RE2z4oIGo5BumyQNLzhf-1">
          <mxGeometry x="21" width="10" height="50" as="geometry" />
        </mxCell>
        <mxCell id="RE2z4oIGo5BumyQNLzhf-11" value="" style="endArrow=classic;html=1;rounded=1;entryX=0;entryY=0.5;entryDx=0;entryDy=0;exitX=1;exitY=0.5;exitDx=0;exitDy=0;labelBackgroundColor=none;fontColor=default;" edge="1" parent="RE2z4oIGo5BumyQNLzhf-1" source="RE2z4oIGo5BumyQNLzhf-7" target="RE2z4oIGo5BumyQNLzhf-7">
          <mxGeometry width="50" height="50" relative="1" as="geometry">
            <mxPoint x="108" y="163" as="sourcePoint" />
            <mxPoint x="179" y="163" as="targetPoint" />
          </mxGeometry>
        </mxCell>
        <mxCell id="RE2z4oIGo5BumyQNLzhf-12" value="" style="endArrow=classic;html=1;rounded=1;entryX=0;entryY=0.5;entryDx=0;entryDy=0;exitX=1;exitY=0.5;exitDx=0;exitDy=0;labelBackgroundColor=none;fontColor=default;" edge="1" parent="RE2z4oIGo5BumyQNLzhf-1" source="RE2z4oIGo5BumyQNLzhf-10" target="RE2z4oIGo5BumyQNLzhf-10">
          <mxGeometry width="50" height="50" relative="1" as="geometry">
            <mxPoint x="44" y="206" as="sourcePoint" />
            <mxPoint x="8" y="171" as="targetPoint" />
          </mxGeometry>
        </mxCell>
        <mxCell id="RE2z4oIGo5BumyQNLzhf-13" value="" style="endArrow=classic;html=1;rounded=1;entryX=1;entryY=0.5;entryDx=0;entryDy=0;exitX=0;exitY=0.5;exitDx=0;exitDy=0;labelBackgroundColor=none;fontColor=default;" edge="1" parent="RE2z4oIGo5BumyQNLzhf-1" source="RE2z4oIGo5BumyQNLzhf-8" target="RE2z4oIGo5BumyQNLzhf-8">
          <mxGeometry width="50" height="50" relative="1" as="geometry">
            <mxPoint x="190" y="160" as="sourcePoint" />
            <mxPoint x="143" y="170" as="targetPoint" />
          </mxGeometry>
        </mxCell>
        <mxCell id="RE2z4oIGo5BumyQNLzhf-14" value="" style="endArrow=classic;html=1;rounded=1;entryX=1;entryY=0.5;entryDx=0;entryDy=0;exitX=0;exitY=0.5;exitDx=0;exitDy=0;labelBackgroundColor=none;fontColor=default;" edge="1" parent="RE2z4oIGo5BumyQNLzhf-1" source="RE2z4oIGo5BumyQNLzhf-6" target="RE2z4oIGo5BumyQNLzhf-6">
          <mxGeometry width="50" height="50" relative="1" as="geometry">
            <mxPoint x="143" as="sourcePoint" />
            <mxPoint x="108" y="36" as="targetPoint" />
          </mxGeometry>
        </mxCell>
        <mxCell id="RE2z4oIGo5BumyQNLzhf-16" value="Motor 1" style="text;html=1;strokeColor=none;fillColor=none;align=center;verticalAlign=middle;whiteSpace=wrap;rounded=1;labelBackgroundColor=none;rotation=45;" vertex="1" parent="RE2z4oIGo5BumyQNLzhf-1">
          <mxGeometry x="130" y="30" width="60" height="30" as="geometry" />
        </mxCell>
        <mxCell id="RE2z4oIGo5BumyQNLzhf-19" value="Motor 4" style="text;html=1;strokeColor=none;fillColor=none;align=center;verticalAlign=middle;whiteSpace=wrap;rounded=1;labelBackgroundColor=none;rotation=-45;" vertex="1" parent="RE2z4oIGo5BumyQNLzhf-1">
          <mxGeometry x="11" y="25" width="60" height="30" as="geometry" />
        </mxCell>
        <mxCell id="RE2z4oIGo5BumyQNLzhf-17" value="Motor 3" style="text;html=1;strokeColor=none;fillColor=none;align=center;verticalAlign=middle;whiteSpace=wrap;rounded=1;labelBackgroundColor=none;rotation=45;" vertex="1" parent="RE2z4oIGo5BumyQNLzhf-1">
          <mxGeometry x="11" y="140" width="60" height="30" as="geometry" />
        </mxCell>
        <mxCell id="RE2z4oIGo5BumyQNLzhf-18" value="Motor 2" style="text;html=1;strokeColor=none;fillColor=none;align=center;verticalAlign=middle;whiteSpace=wrap;rounded=1;labelBackgroundColor=none;rotation=-45;" vertex="1" parent="RE2z4oIGo5BumyQNLzhf-1">
          <mxGeometry x="130" y="140" width="60" height="30" as="geometry" />
        </mxCell>
        <mxCell id="RE2z4oIGo5BumyQNLzhf-55" value="" style="shape=singleArrow;direction=west;whiteSpace=wrap;html=1;rotation=90;" vertex="1" parent="RE2z4oIGo5BumyQNLzhf-1">
          <mxGeometry x="50.5" y="70" width="100" height="60" as="geometry" />
        </mxCell>
        <mxCell id="RE2z4oIGo5BumyQNLzhf-22" value="" style="endArrow=classic;startArrow=classic;html=1;rounded=1;labelBackgroundColor=none;fontColor=default;" edge="1" parent="1">
          <mxGeometry width="50" height="50" relative="1" as="geometry">
            <mxPoint x="20" y="480" as="sourcePoint" />
            <mxPoint x="850" y="480" as="targetPoint" />
            <Array as="points">
              <mxPoint x="320" y="480" />
            </Array>
          </mxGeometry>
        </mxCell>
        <mxCell id="RE2z4oIGo5BumyQNLzhf-23" value="" style="endArrow=classic;startArrow=classic;html=1;rounded=1;labelBackgroundColor=none;fontColor=default;" edge="1" parent="1">
          <mxGeometry width="50" height="50" relative="1" as="geometry">
            <mxPoint x="320" y="770" as="sourcePoint" />
            <mxPoint x="320" y="120" as="targetPoint" />
            <Array as="points" />
          </mxGeometry>
        </mxCell>
      </root>
    </mxGraphModel>
  </diagram>
</mxfile>
